<?xml version="1.0" encoding="utf-8"?>
<!-- Generator: Adobe Illustrator 17.1.0, SVG Export Plug-In . SVG Version: 6.00 Build 0)  -->
<!DOCTYPE svg PUBLIC "-//W3C//DTD SVG 1.1//EN" "http://www.w3.org/Graphics/SVG/1.1/DTD/svg11.dtd">
<svg version="1.1" id="Layer_1" xmlns="http://www.w3.org/2000/svg" xmlns:xlink="http://www.w3.org/1999/xlink" x="0px" y="0px"
	 viewBox="0 0 583 225" enable-background="new 0 0 583 225" xml:space="preserve">
<g>
	<path fill="#808285" d="M115.3,61.5h4.4l6.3,21.7h0.1l6.3-21.7h4.4L127.7,90h-3.2L115.3,61.5z"/>
	<path fill="#808285" d="M139.5,61.5h3.9v4.1h-3.9V61.5z M139.5,69.7h3.9V90h-3.9V69.7z"/>
	<path fill="#808285" d="M160.7,87.9c-1.3,1.5-3,2.3-5.1,2.4c-1.2,0-2.2-0.3-3-0.8c-0.9-0.5-1.6-1.1-2.2-1.9
		c-0.5-0.6-0.9-1.5-1.1-2.6c-0.2-1-0.3-2.8-0.3-5.2c0-2.4,0.1-4.2,0.3-5.2c0.2-1,0.5-1.9,1.1-2.5c1.1-1.7,2.9-2.6,5.3-2.6
		c1,0,1.9,0.2,2.8,0.6c0.8,0.5,1.6,1,2.3,1.7V61.5h3.9V90h-3.9V87.9z M156.8,73.5c-0.9,0-1.6,0.2-2.1,0.5c-0.5,0.4-0.9,0.8-1.2,1.5
		c-0.2,0.6-0.4,1.3-0.5,2c-0.1,0.8-0.1,1.6-0.1,2.4c0,0.8,0,1.5,0.1,2.3c0.1,0.8,0.2,1.5,0.5,2.1c0.3,0.6,0.6,1.1,1.2,1.5
		c0.5,0.4,1.2,0.5,2.1,0.5c0.9,0,1.7-0.2,2.2-0.6c0.5-0.4,0.9-0.9,1.1-1.5c0.3-0.6,0.4-1.3,0.5-2.1c0-0.7,0-1.5,0-2.2
		c0-0.8,0-1.5,0-2.3c-0.1-0.7-0.3-1.4-0.5-2c-0.2-0.6-0.6-1.1-1.1-1.5S157.8,73.5,156.8,73.5z"/>
	<path fill="#808285" d="M172.7,81.4c0,1.6,0.5,2.9,1.4,3.7c0.8,0.9,2,1.3,3.3,1.3c1.6,0,3-0.7,4.3-2l2.9,2.5
		c-2,2.2-4.4,3.3-7.1,3.3c-1,0-2-0.2-3-0.5c-0.5-0.2-1-0.4-1.4-0.7c-0.5-0.2-1-0.6-1.4-0.9c-0.8-0.8-1.5-1.8-2-3.2
		c-0.6-1.3-0.9-3-0.9-5.1c0-2,0.2-3.7,0.7-5c0.5-1.4,1.1-2.4,1.9-3.2c0.8-0.8,1.7-1.4,2.6-1.7c1-0.4,1.9-0.5,2.8-0.5
		c2.2,0,4.1,0.8,5.7,2.3c1.6,1.5,2.4,3.6,2.4,6.3v3.4H172.7z M181,78c-0.1-1.6-0.5-2.8-1.2-3.6c-0.8-0.8-1.7-1.2-2.9-1.2
		c-1.2,0-2.2,0.4-2.9,1.2c-0.7,0.8-1.2,2-1.2,3.6H181z"/>
	<path fill="#808285" d="M188.7,79.8c0-2.1,0.2-3.8,0.5-4.9c0.4-1.1,0.9-2.1,1.6-2.8c0.5-0.7,1.3-1.3,2.3-1.8c1-0.5,2.2-0.8,3.7-0.8
		c1.6,0,2.8,0.3,3.8,0.8c0.9,0.5,1.7,1.1,2.2,1.8c0.8,0.8,1.3,1.7,1.7,2.8c0.3,1.1,0.5,2.8,0.5,4.9c0,2.1-0.2,3.8-0.5,4.9
		c-0.3,1.1-0.9,2.1-1.7,2.9c-0.3,0.3-0.6,0.6-0.9,0.9c-0.3,0.3-0.8,0.6-1.3,0.8c-1,0.6-2.2,0.9-3.8,0.9c-1.5,0-2.7-0.3-3.7-0.9
		c-1-0.5-1.7-1.1-2.3-1.7c-0.7-0.8-1.3-1.8-1.6-2.9C188.9,83.6,188.7,82,188.7,79.8z M201,79.9c0-1.5-0.1-2.5-0.2-3.2
		c-0.1-0.6-0.4-1.2-0.8-1.7c-0.3-0.5-0.7-0.8-1.3-1.1c-0.5-0.3-1.2-0.4-1.9-0.4c-0.7,0-1.3,0.1-1.9,0.4c-0.5,0.3-1,0.6-1.3,1.1
		c-0.3,0.5-0.6,1-0.7,1.7c-0.2,0.7-0.2,1.7-0.2,3.1c0,1.4,0.1,2.4,0.2,3.1c0.2,0.7,0.4,1.3,0.7,1.8c0.3,0.4,0.8,0.7,1.3,1
		c0.6,0.3,1.2,0.4,1.9,0.4c0.7,0,1.4-0.1,1.9-0.4c0.6-0.3,1-0.6,1.3-1c0.4-0.5,0.7-1.1,0.8-1.8C200.9,82.3,201,81.3,201,79.9z"/>
	<path fill="#808285" d="M238.3,82c-0.6,2.6-1.8,4.7-3.5,6.1c-1.8,1.4-3.8,2.1-6.2,2.1c-2.2-0.1-4-0.6-5.4-1.6
		c-1.5-1-2.5-2.2-3.2-3.5c-0.2-0.4-0.4-0.8-0.5-1.2c-0.2-0.4-0.3-0.9-0.4-1.5c-0.2-1.1-0.3-3.3-0.3-6.6c0-3.3,0.1-5.5,0.3-6.6
		c0.2-1.1,0.5-2,0.9-2.7c0.7-1.3,1.7-2.5,3.2-3.5c1.5-1,3.3-1.6,5.4-1.6c2.7,0,4.8,0.8,6.5,2.4c1.7,1.6,2.7,3.6,3.2,6h-4.4
		c-0.3-1.1-1-2.1-1.9-2.9c-0.9-0.8-2.1-1.2-3.4-1.2c-1,0-1.8,0.2-2.5,0.6c-0.7,0.4-1.3,0.9-1.7,1.5c-0.5,0.6-0.9,1.4-1.1,2.4
		c-0.2,1-0.3,2.9-0.3,5.7c0,2.8,0.1,4.7,0.3,5.7c0.2,1,0.5,1.8,1.1,2.4c0.4,0.6,1,1.1,1.7,1.4c0.7,0.4,1.6,0.6,2.5,0.6
		c2.4,0,4.1-1.3,5.3-3.9H238.3z"/>
	<path fill="#808285" d="M240.6,79.8c0-2.1,0.2-3.8,0.5-4.9c0.4-1.1,0.9-2.1,1.6-2.8c0.5-0.7,1.3-1.3,2.3-1.8c1-0.5,2.2-0.8,3.7-0.8
		c1.6,0,2.8,0.3,3.8,0.8c0.9,0.5,1.7,1.1,2.2,1.8c0.8,0.8,1.3,1.7,1.7,2.8c0.3,1.1,0.5,2.8,0.5,4.9c0,2.1-0.2,3.8-0.5,4.9
		c-0.3,1.1-0.9,2.1-1.7,2.9c-0.3,0.3-0.6,0.6-0.9,0.9c-0.3,0.3-0.8,0.6-1.3,0.8c-1,0.6-2.2,0.9-3.8,0.9c-1.5,0-2.7-0.3-3.7-0.9
		c-1-0.5-1.7-1.1-2.3-1.7c-0.7-0.8-1.3-1.8-1.6-2.9C240.8,83.6,240.6,82,240.6,79.8z M252.8,79.9c0-1.5-0.1-2.5-0.2-3.2
		c-0.1-0.6-0.4-1.2-0.8-1.7c-0.3-0.5-0.7-0.8-1.3-1.1c-0.5-0.3-1.2-0.4-1.9-0.4c-0.7,0-1.3,0.1-1.9,0.4c-0.5,0.3-1,0.6-1.3,1.1
		c-0.3,0.5-0.6,1-0.7,1.7c-0.2,0.7-0.2,1.7-0.2,3.1c0,1.4,0.1,2.4,0.2,3.1c0.2,0.7,0.4,1.3,0.7,1.8c0.3,0.4,0.8,0.7,1.3,1
		c0.6,0.3,1.2,0.4,1.9,0.4c0.7,0,1.4-0.1,1.9-0.4c0.6-0.3,1-0.6,1.3-1c0.4-0.5,0.7-1.1,0.8-1.8C252.8,82.3,252.8,81.3,252.8,79.9z"
		/>
	<path fill="#808285" d="M261.4,69.7h3.9v2.1h0.1c1.3-1.6,3.1-2.4,5.3-2.4c1.4,0,2.5,0.3,3.4,0.7c0.8,0.5,1.6,1.2,2.3,1.9
		c1.6-1.8,3.7-2.7,6.4-2.7c1.7,0,3.2,0.6,4.6,1.8c1.4,1.2,2.1,3,2.1,5.3V90h-3.9V77.9c0-1.4-0.4-2.5-1.1-3.2
		c-0.8-0.8-1.7-1.1-2.9-1.1c-1.2,0-2.2,0.4-2.9,1.1c-0.8,0.7-1.2,1.8-1.2,3.2V90h-3.9V77.9c0-1.4-0.4-2.5-1.1-3.2
		c-0.8-0.8-1.7-1.1-2.9-1.1c-1.2,0-2.2,0.4-2.9,1.1c-0.8,0.7-1.2,1.8-1.2,3.2V90h-3.9V69.7z"/>
	<path fill="#808285" d="M295.8,61.5h3.9v4.1h-3.9V61.5z M295.8,69.7h3.9V90h-3.9V69.7z"/>
	<path fill="#808285" d="M305.2,69.7h3.9v2.1h0.1c1.3-1.6,3-2.4,5.1-2.4c1.6,0,3.1,0.6,4.5,1.8c1.3,1.2,2,3,2.1,5.3V90H317V77.9
		c0-1.4-0.4-2.5-1.1-3.2c-0.7-0.8-1.6-1.1-2.8-1.1c-1.1,0-2.1,0.4-2.8,1.1c-0.7,0.7-1.1,1.8-1.1,3.2V90h-3.9V69.7z"/>
	<path fill="#808285" d="M337.8,87.9c-1.3,1.5-3,2.3-5.1,2.4c-1.3,0-2.3-0.3-3.2-0.8c-0.9-0.5-1.6-1.1-2-1.6
		c-0.5-0.7-0.9-1.5-1.1-2.4c-0.2-1-0.4-2.8-0.4-5.4c0-2.7,0.1-4.6,0.4-5.5c0.2-1,0.6-1.8,1.1-2.4c0.5-0.6,1.1-1.2,2-1.7
		c0.8-0.5,1.9-0.7,3.2-0.8c2,0,3.6,0.8,5.1,2.4v-2.1h3.9v19.8c-0.1,3-0.9,5.3-2.6,6.7c-1.7,1.5-3.7,2.2-6,2.2
		c-2.7-0.1-4.9-1.2-6.8-3.4l3.1-2.5c0.5,0.5,1.1,0.9,1.7,1.2c0.7,0.4,1.4,0.6,2.1,0.6c1.3,0,2.4-0.4,3.3-1.2
		c0.8-0.8,1.2-1.9,1.2-3.3V87.9z M330,79.9c0,1.6,0.1,2.6,0.2,3.2c0.1,0.6,0.3,1.1,0.6,1.5c0.3,0.4,0.7,0.7,1.2,1
		c0.5,0.4,1.2,0.5,1.9,0.5c0.8,0,1.4-0.2,1.9-0.5c0.5-0.3,0.9-0.6,1.2-1c0.3-0.4,0.5-0.9,0.7-1.5c0.1-0.6,0.1-1.7,0.1-3.2
		c0-1.6,0-2.7-0.1-3.3c-0.1-0.6-0.3-1.1-0.7-1.5c-0.3-0.4-0.7-0.7-1.2-1.1c-0.5-0.3-1.2-0.5-1.9-0.5c-0.8,0-1.4,0.2-1.9,0.5
		c-0.5,0.4-0.9,0.7-1.2,1.1c-0.3,0.4-0.5,0.9-0.6,1.5C330,77.2,330,78.3,330,79.9z"/>
	<path fill="#808285" d="M357.8,83.1c2.2,1.9,4.8,2.8,7.8,2.8c3.6-0.1,5.4-1.4,5.5-4c0-2.1-1.2-3.4-3.6-3.8
		c-1.1-0.2-2.3-0.3-3.7-0.5c-2.4-0.4-4.2-1.3-5.4-2.7c-1.3-1.4-1.9-3.2-1.9-5.3c0-2.5,0.8-4.5,2.4-6c1.5-1.5,3.7-2.3,6.6-2.3
		c3.4,0.1,6.4,1.1,8.9,2.9l-2.3,3.5c-2.1-1.4-4.3-2.1-6.8-2.2c-1.3,0-2.4,0.3-3.2,1c-0.9,0.7-1.4,1.7-1.4,3.1c0,0.8,0.3,1.6,0.9,2.2
		c0.6,0.7,1.6,1.1,3,1.4c0.8,0.1,1.8,0.3,3.1,0.4c2.6,0.4,4.5,1.3,5.7,2.9c1.2,1.5,1.8,3.3,1.8,5.3c-0.1,5.4-3.4,8.2-9.7,8.3
		c-4.1,0-7.6-1.3-10.5-3.9L357.8,83.1z"/>
	<path fill="#808285" d="M379,79.8c0-2.1,0.2-3.8,0.5-4.9c0.4-1.1,0.9-2.1,1.6-2.8c0.5-0.7,1.3-1.3,2.3-1.8c1-0.5,2.2-0.8,3.7-0.8
		c1.6,0,2.8,0.3,3.8,0.8c0.9,0.5,1.7,1.1,2.2,1.8c0.8,0.8,1.3,1.7,1.7,2.8c0.3,1.1,0.5,2.8,0.5,4.9c0,2.1-0.2,3.8-0.5,4.9
		c-0.3,1.1-0.9,2.1-1.7,2.9c-0.3,0.3-0.6,0.6-0.9,0.9c-0.3,0.3-0.8,0.6-1.3,0.8c-1,0.6-2.2,0.9-3.8,0.9c-1.5,0-2.7-0.3-3.7-0.9
		c-1-0.5-1.7-1.1-2.3-1.7c-0.7-0.8-1.3-1.8-1.6-2.9C379.2,83.6,379,82,379,79.8z M391.3,79.9c0-1.5-0.1-2.5-0.2-3.2
		c-0.1-0.6-0.4-1.2-0.8-1.7c-0.3-0.5-0.7-0.8-1.3-1.1c-0.5-0.3-1.2-0.4-1.9-0.4c-0.7,0-1.3,0.1-1.9,0.4c-0.5,0.3-1,0.6-1.3,1.1
		c-0.3,0.5-0.6,1-0.7,1.7c-0.2,0.7-0.2,1.7-0.2,3.1c0,1.4,0.1,2.4,0.2,3.1c0.2,0.7,0.4,1.3,0.7,1.8c0.3,0.4,0.8,0.7,1.3,1
		c0.6,0.3,1.2,0.4,1.9,0.4c0.7,0,1.4-0.1,1.9-0.4c0.6-0.3,1-0.6,1.3-1c0.4-0.5,0.7-1.1,0.8-1.8C391.2,82.3,391.3,81.3,391.3,79.9z"
		/>
	<path fill="#808285" d="M399,79.8c0-2.1,0.2-3.8,0.5-4.9c0.4-1.1,0.9-2.1,1.6-2.8c0.5-0.7,1.3-1.3,2.3-1.8c1-0.5,2.2-0.8,3.7-0.8
		c1.6,0,2.8,0.3,3.8,0.8c0.9,0.5,1.7,1.1,2.2,1.8c0.8,0.8,1.3,1.7,1.7,2.8c0.3,1.1,0.5,2.8,0.5,4.9c0,2.1-0.2,3.8-0.5,4.9
		c-0.3,1.1-0.9,2.1-1.7,2.9c-0.3,0.3-0.6,0.6-0.9,0.9c-0.3,0.3-0.8,0.6-1.3,0.8c-1,0.6-2.2,0.9-3.8,0.9c-1.5,0-2.7-0.3-3.7-0.9
		c-1-0.5-1.7-1.1-2.3-1.7c-0.7-0.8-1.3-1.8-1.6-2.9C399.2,83.6,399,82,399,79.8z M411.3,79.9c0-1.5-0.1-2.5-0.2-3.2
		c-0.1-0.6-0.4-1.2-0.8-1.7c-0.3-0.5-0.7-0.8-1.3-1.1c-0.5-0.3-1.2-0.4-1.9-0.4c-0.7,0-1.3,0.1-1.9,0.4c-0.5,0.3-1,0.6-1.3,1.1
		c-0.3,0.5-0.6,1-0.7,1.7c-0.2,0.7-0.2,1.7-0.2,3.1c0,1.4,0.1,2.4,0.2,3.1c0.2,0.7,0.4,1.3,0.7,1.8c0.3,0.4,0.8,0.7,1.3,1
		c0.6,0.3,1.2,0.4,1.9,0.4c0.7,0,1.4-0.1,1.9-0.4c0.6-0.3,1-0.6,1.3-1c0.4-0.5,0.7-1.1,0.8-1.8C411.2,82.3,411.3,81.3,411.3,79.9z"
		/>
	<path fill="#808285" d="M420,69.7h3.9v2.1h0.1c1.3-1.6,3-2.4,5.1-2.4c1.6,0,3.1,0.6,4.5,1.8c1.3,1.2,2,3,2.1,5.3V90h-3.9V77.9
		c0-1.4-0.4-2.5-1.1-3.2c-0.7-0.8-1.6-1.1-2.8-1.1c-1.1,0-2.1,0.4-2.8,1.1c-0.7,0.7-1.1,1.8-1.1,3.2V90H420V69.7z"/>
	<path fill="#808285" d="M441.6,85.9h3.9V90h-3.9V85.9z"/>
	<path fill="#808285" d="M451.2,85.9h3.9V90h-3.9V85.9z"/>
	<path fill="#808285" d="M460.8,85.9h3.9V90h-3.9V85.9z"/>
</g>
<g>
	<path fill="#009444" d="M149.8,122.2c-2,2.4-3.8,5.9-3.8,10.1c0,1.8,0.2,3.4,0.9,5.2h-1.6c-0.7-1.5-1.1-3.2-1.1-5.2
		c0-4.5,1.9-8,3.9-10.2H149.8z"/>
	<path fill="#009444" d="M148.3,139.1l1.8-9.6c0.2-1.1,0.4-2.5,0.5-3.4h2l-0.2,1.5h0c0.8-1.1,1.9-1.7,3.1-1.7c2,0,2.9,1.6,2.9,3.4
		c0,3.2-2.2,6.2-5.4,6.2c-0.9,0-1.5-0.2-1.8-0.4h0l-0.7,4H148.3z M151.6,133.3c0.3,0.3,0.8,0.5,1.5,0.5c1.7,0,3.1-2.3,3.1-4.4
		c0-0.9-0.4-1.8-1.5-1.8c-1.1,0-2.3,1.3-2.7,3.4L151.6,133.3z"/>
	<path fill="#009444" d="M159.5,135.3l2.6-13.5h2.2l-2.6,13.5H159.5z"/>
	<path fill="#009444" d="M171.4,134.8c-0.9,0.5-2.1,0.7-3.3,0.7c-2.6,0-3.8-1.6-3.8-3.8c0-2.8,2.1-5.8,5.2-5.8c1.8,0,3,1.1,3,2.6
		c0,2.4-2.5,3.1-6.1,3.1c0,0.3,0,1,0.2,1.3c0.4,0.6,1,0.9,1.9,0.9c1,0,1.9-0.3,2.5-0.6L171.4,134.8z M169.3,127.5
		c-1.4,0-2.3,1.2-2.6,2.4c2.3,0,3.7-0.3,3.7-1.4C170.5,127.9,170,127.5,169.3,127.5z"/>
	<path fill="#009444" d="M179.4,135.3c0-0.6,0.1-1.3,0.2-2.1h-0.1c-0.9,1.7-2.1,2.3-3.3,2.3c-1.7,0-2.7-1.3-2.7-3.2
		c0-3.2,2.2-6.5,6.5-6.5c1,0,2.1,0.2,2.8,0.4l-0.9,4.8c-0.3,1.4-0.4,3.1-0.4,4.2H179.4z M180.3,127.6c-0.2-0.1-0.5-0.1-0.9-0.1
		c-2.1,0-3.6,2.3-3.6,4.4c0,1,0.4,1.8,1.3,1.8c1,0,2.3-1.3,2.7-3.6L180.3,127.6z"/>
	<path fill="#009444" d="M183.8,133.2c0.5,0.3,1.4,0.6,2.2,0.6c0.9,0,1.4-0.5,1.4-1.1c0-0.6-0.3-0.9-1.2-1.4
		c-1.1-0.6-1.8-1.3-1.8-2.4c0-1.8,1.6-3,3.7-3c1,0,1.8,0.2,2.2,0.5l-0.6,1.6c-0.3-0.2-1-0.4-1.7-0.4c-0.8,0-1.4,0.5-1.4,1.1
		c0,0.5,0.4,0.9,1.2,1.3c1,0.6,1.9,1.3,1.9,2.5c0,2-1.7,3.2-3.9,3.2c-1.1,0-2.1-0.3-2.6-0.7L183.8,133.2z"/>
	<path fill="#009444" d="M198.3,134.8c-0.9,0.5-2.1,0.7-3.3,0.7c-2.6,0-3.8-1.6-3.8-3.8c0-2.8,2.1-5.8,5.2-5.8c1.8,0,3,1.1,3,2.6
		c0,2.4-2.5,3.1-6.1,3.1c0,0.3,0,1,0.2,1.3c0.4,0.6,1,0.9,1.9,0.9c1,0,1.9-0.3,2.5-0.6L198.3,134.8z M196.2,127.5
		c-1.4,0-2.3,1.2-2.6,2.4c2.3,0,3.7-0.3,3.7-1.4C197.4,127.9,196.9,127.5,196.2,127.5z"/>
	<path fill="#009444" d="M203.9,133.2c0.5,0.3,1.4,0.6,2.2,0.6c0.9,0,1.4-0.5,1.4-1.1c0-0.6-0.3-0.9-1.2-1.4
		c-1.1-0.6-1.8-1.3-1.8-2.4c0-1.8,1.6-3,3.7-3c1,0,1.8,0.2,2.2,0.5l-0.6,1.6c-0.3-0.2-1-0.4-1.7-0.4c-0.8,0-1.4,0.5-1.4,1.1
		c0,0.5,0.4,0.9,1.2,1.3c1,0.6,1.9,1.3,1.9,2.5c0,2-1.7,3.2-3.9,3.2c-1.1,0-2.1-0.3-2.6-0.7L203.9,133.2z"/>
	<path fill="#009444" d="M217.8,135c-0.5,0.3-1.5,0.5-2.7,0.5c-2.3,0-3.7-1.5-3.7-3.7c0-3.2,2.5-6,5.9-6c0.8,0,1.5,0.2,1.9,0.4
		l-0.6,1.7c-0.3-0.2-0.8-0.3-1.4-0.3c-2.1,0-3.5,2-3.5,3.9c0,1.4,0.8,2.2,2,2.2c0.9,0,1.5-0.2,2-0.4L217.8,135z"/>
	<path fill="#009444" d="M219.4,135.3l1.1-5.7c0.2-1.3,0.4-2.7,0.5-3.6h1.9c-0.1,0.6-0.1,1.3-0.2,2h0.1c0.6-1.3,1.6-2.2,2.9-2.2
		c0.2,0,0.3,0,0.5,0l-0.4,2.2c-0.1,0-0.3,0-0.4,0c-1.6,0-2.6,1.6-2.9,3.6l-0.7,3.7H219.4z"/>
	<path fill="#009444" d="M235.3,129.7c0,3.1-2.2,5.8-5.4,5.8c-2.3,0-3.8-1.6-3.8-3.8c0-3.1,2.2-5.9,5.3-5.9
		C234,125.8,235.3,127.6,235.3,129.7z M228.4,131.6c0,1.3,0.7,2.2,1.8,2.2c1.7,0,2.8-2.3,2.8-4.1c0-1-0.4-2.1-1.8-2.1
		C229.4,127.5,228.4,129.9,228.4,131.6z"/>
	<path fill="#009444" d="M236.2,135.3l2.6-13.5h2.2l-2.6,13.5H236.2z"/>
	<path fill="#009444" d="M240.9,135.3l2.6-13.5h2.2l-2.6,13.5H240.9z"/>
	<path fill="#009444" d="M259.5,121.8l-1.9,10.2c-0.2,1.1-0.4,2.3-0.4,3.3h-2l0.2-1.7h0c-0.8,1.3-2,1.9-3.2,1.9
		c-1.7,0-2.8-1.3-2.8-3.4c0-3.2,2.4-6.2,5.8-6.2c0.5,0,1,0.1,1.4,0.3l0.8-4.3H259.5z M256.2,127.9c-0.3-0.2-0.7-0.4-1.3-0.4
		c-1.9,0-3.3,2.1-3.3,4.2c0,1.1,0.4,2,1.5,2c1,0,2.2-1.1,2.5-3L256.2,127.9z"/>
	<path fill="#009444" d="M268.9,129.7c0,3.1-2.2,5.8-5.4,5.8c-2.3,0-3.8-1.6-3.8-3.8c0-3.1,2.2-5.9,5.3-5.9
		C267.5,125.8,268.9,127.6,268.9,129.7z M262,131.6c0,1.3,0.7,2.2,1.8,2.2c1.7,0,2.8-2.3,2.8-4.1c0-1-0.4-2.1-1.8-2.1
		C263,127.5,262,129.9,262,131.6z"/>
	<path fill="#009444" d="M272.5,126l0.2,4.5c0,1.1,0,1.8,0,2.7h0c0.3-0.8,0.7-1.7,1.1-2.6l2.2-4.6h1.8l0.4,4.5
		c0.1,1,0.1,1.9,0.1,2.7h0c0.3-0.9,0.6-1.7,0.9-2.7l2-4.5h2.2l-4.5,9.3H277l-0.4-4c-0.1-0.9-0.1-1.7-0.1-2.7h0
		c-0.5,1.1-0.7,1.8-1.1,2.6l-2.1,4.1h-2.1l-0.9-9.3H272.5z"/>
	<path fill="#009444" d="M283.4,135.3l1.2-6.4c0.2-1.1,0.4-2.1,0.5-2.9h2l-0.2,1.7h0c0.9-1.3,2-1.9,3.3-1.9c1.3,0,2.4,0.8,2.4,2.5
		c0,0.4-0.1,1.1-0.2,1.5l-1,5.4h-2.2l1-5.2c0.1-0.3,0.1-0.7,0.1-1.1c0-0.8-0.3-1.3-1.2-1.3c-1,0-2.3,1.2-2.7,3.4l-0.8,4.3H283.4z"/>
	<path fill="#009444" d="M297.5,135.3l1.4-7.5h-1.2l0.3-1.7h1.2l0.1-0.5c0.2-1.2,0.7-2.4,1.5-3.1c0.7-0.6,1.6-0.9,2.4-0.9
		c0.6,0,1.1,0.1,1.4,0.2l-0.4,1.7c-0.2-0.1-0.5-0.2-0.9-0.2c-1,0-1.6,1-1.8,2.2l-0.1,0.4h1.9l-0.3,1.7h-1.9l-1.4,7.5H297.5z"/>
	<path fill="#009444" d="M312.5,129.7c0,3.1-2.2,5.8-5.4,5.8c-2.3,0-3.8-1.6-3.8-3.8c0-3.1,2.2-5.9,5.3-5.9
		C311.2,125.8,312.5,127.6,312.5,129.7z M305.6,131.6c0,1.3,0.7,2.2,1.8,2.2c1.7,0,2.8-2.3,2.8-4.1c0-1-0.4-2.1-1.8-2.1
		C306.7,127.5,305.6,129.9,305.6,131.6z"/>
	<path fill="#009444" d="M313.4,135.3l1.1-5.7c0.2-1.3,0.4-2.7,0.5-3.6h1.9c-0.1,0.6-0.1,1.3-0.2,2h0.1c0.6-1.3,1.6-2.2,2.9-2.2
		c0.2,0,0.3,0,0.5,0l-0.4,2.2c-0.1,0-0.3,0-0.4,0c-1.6,0-2.6,1.6-2.9,3.6l-0.7,3.7H313.4z"/>
	<path fill="#009444" d="M323.5,135.3l1.2-6.4c0.2-1.1,0.4-2.1,0.5-2.9h1.9l-0.2,1.6h0c0.9-1.2,2-1.8,3.2-1.8c1.4,0,2.1,0.9,2.2,1.9
		c0.8-1.3,2-1.9,3.3-1.9c1.3,0,2.3,0.8,2.3,2.5c0,0.4-0.1,1.1-0.2,1.6l-1,5.4h-2.1l1-5.2c0.1-0.4,0.1-0.8,0.1-1.2
		c0-0.8-0.3-1.3-1.1-1.3c-1,0-2.1,1.3-2.5,3.2l-0.8,4.4H329l1-5.2c0.1-0.4,0.1-0.7,0.1-1.1c0-0.7-0.2-1.3-1.1-1.3
		c-1,0-2.2,1.4-2.5,3.3l-0.8,4.4H323.5z"/>
	<path fill="#009444" d="M348.5,129.7c0,3.1-2.2,5.8-5.4,5.8c-2.3,0-3.8-1.6-3.8-3.8c0-3.1,2.2-5.9,5.3-5.9
		C347.2,125.8,348.5,127.6,348.5,129.7z M341.6,131.6c0,1.3,0.7,2.2,1.8,2.2c1.7,0,2.8-2.3,2.8-4.1c0-1-0.4-2.1-1.8-2.1
		C342.6,127.5,341.6,129.9,341.6,131.6z"/>
	<path fill="#009444" d="M349.4,135.3l1.1-5.7c0.2-1.3,0.4-2.7,0.5-3.6h1.9c-0.1,0.6-0.1,1.3-0.2,2h0.1c0.6-1.3,1.6-2.2,2.9-2.2
		c0.2,0,0.3,0,0.5,0l-0.4,2.2c-0.1,0-0.3,0-0.4,0c-1.6,0-2.6,1.6-2.9,3.6l-0.7,3.7H349.4z"/>
	<path fill="#009444" d="M363.2,134.8c-0.9,0.5-2.1,0.7-3.3,0.7c-2.6,0-3.8-1.6-3.8-3.8c0-2.8,2.1-5.8,5.2-5.8c1.8,0,3,1.1,3,2.6
		c0,2.4-2.5,3.1-6.1,3.1c0,0.3,0,1,0.2,1.3c0.4,0.6,1,0.9,1.9,0.9c1,0,1.9-0.3,2.5-0.6L363.2,134.8z M361.1,127.5
		c-1.4,0-2.3,1.2-2.6,2.4c2.3,0,3.7-0.3,3.7-1.4C362.3,127.9,361.8,127.5,361.1,127.5z"/>
	<path fill="#009444" d="M368.5,135.3l1.7-9.3h2.2l-1.8,9.3H368.5z M370.6,123.5c0-0.8,0.6-1.3,1.3-1.3c0.7,0,1.2,0.5,1.2,1.2
		c0,0.8-0.6,1.3-1.4,1.3C371.1,124.7,370.6,124.2,370.6,123.5z"/>
	<path fill="#009444" d="M373.3,135.3l1.2-6.4c0.2-1.1,0.4-2.1,0.5-2.9h2l-0.2,1.7h0c0.9-1.3,2-1.9,3.3-1.9c1.3,0,2.4,0.8,2.4,2.5
		c0,0.4-0.1,1.1-0.2,1.5l-1,5.4H379l1-5.2c0.1-0.3,0.1-0.7,0.1-1.1c0-0.8-0.3-1.3-1.2-1.3c-1,0-2.3,1.2-2.7,3.4l-0.8,4.3H373.3z"/>
	<path fill="#009444" d="M384,135.3l1.4-7.5h-1.2l0.3-1.7h1.2l0.1-0.5c0.2-1.2,0.7-2.4,1.5-3.1c0.7-0.6,1.6-0.9,2.4-0.9
		c0.6,0,1.1,0.1,1.4,0.2l-0.4,1.7c-0.2-0.1-0.5-0.2-0.9-0.2c-1,0-1.6,1-1.8,2.2l-0.1,0.4h1.9l-0.3,1.7h-1.9l-1.4,7.5H384z"/>
	<path fill="#009444" d="M398.9,129.7c0,3.1-2.2,5.8-5.4,5.8c-2.3,0-3.8-1.6-3.8-3.8c0-3.1,2.2-5.9,5.3-5.9
		C397.6,125.8,398.9,127.6,398.9,129.7z M392.1,131.6c0,1.3,0.7,2.2,1.8,2.2c1.7,0,2.8-2.3,2.8-4.1c0-1-0.4-2.1-1.8-2.1
		C393.1,127.5,392.1,129.9,392.1,131.6z"/>
	<path fill="#009444" d="M398.7,137.5c2-2.4,3.8-5.9,3.8-10.2c0-1.8-0.2-3.3-0.9-5.2h1.6c0.7,1.5,1.1,3.2,1.1,5.1
		c0,4.5-1.9,8-3.9,10.2H398.7z"/>
</g>
<g>
</g>
<g>
</g>
<g>
</g>
<g>
</g>
<g>
</g>
<g>
</g>
</svg>
